<?xml version="1.0" standalone="no"?>
<!DOCTYPE svg PUBLIC "-//W3C//DTD SVG 20010904//EN"
 "http://www.w3.org/TR/2001/REC-SVG-20010904/DTD/svg10.dtd">
<svg version="1.0" xmlns="http://www.w3.org/2000/svg"
 width="2035.000000pt" height="2035.000000pt" viewBox="0 0 2035.000000 2035.000000"
 preserveAspectRatio="xMidYMid meet">
<metadata>
Created by potrace 1.14, written by Peter Selinger 2001-2017
</metadata>
<g transform="translate(0.000000,2035.000000) scale(0.100000,-0.100000)"
fill="#000000" stroke="none">
<path d="M10027 20153 c-1 0 -96 -4 -212 -8 -115 -3 -226 -8 -245 -10 -19 -2
-80 -6 -136 -9 -56 -4 -112 -8 -125 -11 -13 -2 -61 -6 -105 -10 -45 -3 -93 -8
-105 -10 -26 -4 -105 -13 -184 -20 -27 -3 -59 -7 -70 -9 -11 -3 -42 -8 -70
-11 -27 -4 -106 -16 -175 -27 -69 -11 -138 -22 -155 -24 -16 -3 -53 -9 -81
-15 -28 -5 -62 -12 -76 -14 -33 -6 -188 -39 -308 -65 -547 -118 -1316 -370
-1778 -581 -34 -16 -65 -29 -67 -29 -15 0 -512 -243 -660 -323 -142 -76 -299
-166 -437 -250 -65 -40 -126 -77 -136 -82 -70 -42 -295 -191 -422 -279 -993
-690 -1879 -1588 -2562 -2596 -151 -224 -349 -543 -448 -725 -18 -33 -44 -80
-58 -105 -88 -157 -312 -616 -369 -755 -14 -33 -31 -71 -38 -85 -53 -103 -298
-765 -340 -920 -3 -8 -16 -53 -30 -100 -15 -47 -28 -92 -31 -100 -62 -220
-110 -400 -119 -451 -3 -18 -8 -35 -10 -39 -2 -3 -6 -17 -9 -31 -3 -13 -12
-55 -20 -94 -22 -98 -44 -204 -51 -244 -3 -19 -7 -37 -9 -40 -2 -3 -7 -28 -10
-55 -4 -27 -9 -52 -10 -55 -3 -5 -10 -47 -21 -121 -2 -14 -14 -86 -20 -121 -2
-9 -7 -40 -11 -70 -10 -75 -10 -78 -18 -134 -17 -119 -23 -172 -41 -350 -3
-33 -8 -79 -10 -103 -3 -24 -7 -82 -11 -130 -3 -48 -7 -109 -9 -137 -23 -288
-22 -1066 0 -1255 2 -19 7 -78 9 -130 3 -52 8 -113 10 -135 3 -22 8 -70 11
-107 3 -37 8 -77 10 -90 2 -13 6 -52 10 -88 9 -85 12 -111 20 -162 4 -24 9
-56 11 -73 8 -77 38 -263 64 -400 5 -27 12 -63 15 -80 5 -33 12 -67 20 -105 3
-14 7 -35 10 -48 2 -13 6 -31 9 -40 3 -9 7 -28 10 -42 13 -73 100 -432 114
-470 3 -8 6 -22 8 -30 27 -133 271 -869 339 -1025 7 -16 28 -66 45 -110 91
-231 182 -427 345 -750 112 -220 173 -332 305 -560 63 -109 200 -324 303 -478
67 -99 127 -187 132 -196 18 -29 295 -401 305 -411 3 -3 44 -52 90 -110 46
-58 87 -107 90 -110 3 -3 30 -34 59 -70 187 -227 553 -610 820 -859 96 -89
149 -136 347 -308 109 -95 386 -313 549 -433 471 -345 969 -647 1485 -902 293
-144 547 -255 860 -375 296 -114 965 -322 1150 -359 14 -3 41 -9 60 -15 28 -7
308 -69 385 -85 11 -2 92 -17 180 -33 155 -29 195 -35 280 -46 22 -2 49 -7 60
-9 39 -8 259 -35 330 -41 17 -2 53 -5 80 -9 57 -7 112 -12 240 -22 49 -3 105
-8 125 -9 294 -24 962 -24 1305 0 174 12 332 25 371 30 16 2 59 7 95 10 54 5
135 16 379 50 29 4 236 38 305 50 51 8 196 38 250 50 33 8 94 21 135 29 41 9
93 21 115 26 22 6 47 12 55 14 360 88 662 178 1015 304 182 65 377 141 393
154 6 6 12 8 12 5 0 -14 470 199 727 330 103 52 253 132 333 176 154 86 472
275 480 287 3 3 12 9 20 12 27 10 388 256 556 379 241 177 543 421 734 594
197 177 264 242 454 434 261 265 233 235 401 426 253 290 408 484 606 759 59
83 112 156 116 161 62 78 396 613 488 780 21 39 63 115 93 170 185 337 409
830 552 1215 17 47 37 99 43 115 6 17 13 35 14 40 1 6 27 81 57 169 87 249
241 795 270 951 3 17 10 48 15 70 5 22 12 51 15 65 2 14 12 58 20 97 9 40 18
87 21 105 3 18 10 56 15 83 12 60 20 111 25 145 2 14 7 41 10 60 4 19 8 46 10
60 2 14 8 54 13 90 6 36 14 89 17 119 4 30 8 62 10 72 2 10 7 46 10 81 4 35 8
74 10 88 2 14 6 59 10 100 4 41 9 89 10 105 2 17 7 73 10 125 4 52 8 115 10
140 23 311 23 990 0 1265 -2 28 -7 86 -10 130 -10 140 -25 297 -30 325 -1 8
-6 44 -9 80 -4 36 -9 80 -11 98 -7 57 -25 186 -29 212 -3 14 -12 70 -20 125
-9 55 -18 110 -20 121 -2 12 -7 38 -10 59 -42 265 -172 795 -281 1151 -79 259
-230 680 -298 837 -8 17 -25 57 -37 87 -13 30 -33 78 -45 105 -13 28 -37 84
-55 125 -42 97 -245 509 -308 625 -166 306 -324 567 -527 869 -69 103 -131
193 -136 200 -5 6 -59 78 -120 160 -173 234 -398 511 -569 700 -19 22 -60 67
-90 100 -72 80 -528 536 -606 606 -199 180 -351 310 -509 435 -55 44 -102 82
-105 85 -9 10 -273 205 -383 283 -84 61 -347 235 -472 314 -379 240 -936 530
-1370 713 -82 35 -169 71 -192 82 -24 10 -49 18 -56 18 -7 0 -17 4 -22 9 -12
10 -297 116 -340 127 -16 4 -34 10 -40 14 -23 17 -609 194 -745 225 -8 2 -69
17 -135 34 -221 54 -494 111 -649 135 -21 4 -48 8 -60 11 -12 2 -39 7 -61 10
-22 3 -83 12 -135 20 -101 15 -116 17 -255 34 -49 6 -103 13 -120 15 -16 3
-66 7 -110 11 -44 3 -91 8 -105 10 -14 3 -70 7 -125 10 -55 3 -118 8 -140 10
-85 9 -751 25 -758 18z m493 -468 c225 -8 248 -9 370 -19 41 -4 102 -9 135
-12 146 -12 170 -14 283 -29 20 -3 64 -7 96 -10 33 -3 62 -7 65 -9 3 -2 35 -7
71 -11 36 -4 67 -8 70 -10 3 -2 27 -6 54 -9 69 -10 268 -44 356 -63 41 -8 86
-17 100 -20 14 -2 84 -18 155 -34 72 -16 141 -32 155 -35 14 -2 32 -7 40 -10
8 -3 26 -8 39 -10 225 -43 994 -296 1286 -424 22 -10 90 -39 150 -65 61 -26
126 -54 145 -63 186 -81 739 -366 822 -424 14 -10 30 -18 35 -18 4 0 32 -16
60 -35 29 -19 54 -35 57 -35 22 0 534 -341 746 -496 101 -74 431 -334 458
-360 7 -7 34 -30 60 -51 26 -21 52 -42 58 -48 6 -5 44 -39 84 -75 150 -132
210 -189 425 -405 263 -263 325 -330 525 -565 63 -74 142 -169 174 -210 33
-41 63 -77 66 -80 3 -3 17 -21 30 -40 13 -19 27 -37 30 -40 3 -3 29 -36 57
-75 29 -38 56 -74 61 -80 73 -94 412 -595 412 -609 0 -3 13 -24 29 -48 15 -24
39 -62 52 -84 13 -23 56 -97 95 -165 187 -323 367 -688 544 -1104 9 -22 39
-96 65 -165 26 -69 53 -138 60 -155 25 -58 145 -419 194 -584 73 -242 140
-508 186 -730 2 -9 8 -36 14 -61 9 -41 52 -273 66 -360 3 -19 10 -60 15 -90 5
-30 11 -75 14 -100 4 -25 8 -56 11 -69 2 -14 7 -47 10 -75 3 -28 8 -67 10 -86
7 -55 13 -109 20 -185 4 -38 8 -81 10 -95 2 -14 7 -70 10 -125 4 -55 8 -116
11 -135 22 -194 22 -886 -1 -1230 -6 -86 -16 -222 -20 -255 -2 -16 -6 -59 -10
-95 -15 -148 -26 -249 -30 -271 -2 -9 -6 -40 -10 -69 -4 -29 -8 -61 -10 -70
-2 -9 -6 -41 -10 -70 -4 -29 -9 -62 -11 -74 -2 -12 -7 -37 -10 -56 -2 -19 -9
-57 -14 -85 -5 -27 -12 -66 -15 -85 -3 -19 -10 -51 -15 -70 -5 -19 -11 -51
-14 -70 -7 -44 -23 -121 -35 -169 -5 -20 -12 -53 -15 -75 -4 -21 -8 -41 -11
-45 -2 -4 -6 -18 -9 -32 -11 -51 -16 -72 -56 -224 -22 -86 -57 -209 -76 -273
-20 -64 -37 -125 -39 -134 -2 -9 -9 -27 -16 -40 -7 -13 -11 -23 -9 -23 5 0
-68 -222 -86 -262 -8 -17 -14 -34 -14 -38 0 -10 -111 -302 -150 -395 -18 -41
-33 -79 -34 -85 -1 -5 -12 -30 -23 -55 -11 -25 -34 -76 -51 -115 -55 -130
-223 -474 -300 -615 -384 -706 -755 -1241 -1261 -1820 -149 -171 -631 -659
-781 -790 -52 -46 -111 -97 -130 -114 -461 -413 -1126 -869 -1765 -1213 -88
-48 -483 -243 -490 -243 -2 0 -42 -18 -89 -40 -47 -22 -88 -40 -90 -40 -3 0
-33 -13 -68 -29 -64 -29 -208 -87 -399 -159 -141 -54 -497 -173 -634 -212
-154 -44 -363 -101 -405 -110 -19 -4 -84 -19 -145 -33 -60 -14 -121 -28 -135
-30 -14 -3 -43 -10 -65 -15 -22 -6 -56 -13 -75 -16 -19 -3 -46 -8 -60 -11 -14
-3 -38 -8 -55 -10 -16 -3 -65 -11 -110 -19 -92 -17 -102 -19 -285 -45 -74 -11
-162 -23 -195 -26 -33 -3 -67 -8 -75 -10 -8 -2 -51 -7 -95 -10 -44 -4 -91 -8
-105 -10 -14 -2 -65 -7 -115 -10 -49 -4 -110 -8 -135 -10 -303 -24 -937 -24
-1271 0 -142 10 -226 17 -259 20 -19 2 -66 7 -105 10 -38 4 -77 8 -85 10 -8 2
-46 7 -85 10 -38 4 -77 8 -85 10 -8 3 -35 7 -60 10 -76 9 -121 15 -215 31 -49
8 -103 17 -120 20 -16 2 -86 16 -155 29 -162 32 -149 30 -264 55 -126 28 -132
29 -156 35 -11 3 -28 7 -37 9 -10 2 -47 12 -83 21 -36 9 -72 18 -80 20 -8 2
-101 28 -207 59 -964 279 -1856 696 -2683 1255 -125 84 -312 216 -365 258 -6
4 -48 37 -95 72 -47 36 -110 85 -141 110 -31 25 -73 60 -95 76 -34 27 -110 91
-124 105 -3 3 -21 18 -40 34 -255 208 -682 629 -960 945 -152 174 -241 281
-345 416 -38 50 -72 92 -75 95 -5 5 -61 79 -173 232 -83 113 -303 445 -388
585 -41 68 -82 135 -91 150 -10 16 -21 35 -25 43 -4 8 -32 60 -63 115 -340
601 -613 1245 -819 1935 -47 155 -110 386 -136 500 -13 52 -75 340 -79 365 -3
17 -10 55 -16 85 -14 69 -40 217 -45 250 -1 14 -6 41 -9 60 -12 76 -35 248
-41 305 -3 33 -8 76 -10 95 -3 19 -7 51 -10 70 -2 19 -7 69 -10 110 -3 41 -8
98 -10 125 -14 132 -29 534 -28 780 0 180 11 548 17 582 2 10 7 69 11 132 4
63 8 121 10 130 2 9 6 54 10 100 4 47 8 92 10 102 2 10 7 49 10 86 4 37 9 77
11 88 2 11 7 40 10 65 8 68 32 224 40 264 2 11 7 41 10 66 3 25 8 52 10 60 1
8 17 85 34 170 17 85 33 162 35 170 2 8 8 38 15 65 28 125 73 306 96 389 15
50 27 96 28 101 5 22 40 138 84 275 25 80 47 150 48 155 4 22 139 388 184 500
188 469 419 935 678 1365 335 559 766 1132 1181 1575 78 83 419 424 511 511
501 474 1202 983 1855 1346 131 73 617 320 635 324 3 0 32 13 65 28 33 15 103
45 155 67 52 22 109 46 125 54 35 15 185 74 283 110 37 14 76 29 87 34 20 10
246 89 275 97 8 2 119 35 245 74 127 39 243 73 259 76 16 3 32 7 36 9 14 9
506 123 610 141 14 3 50 9 80 15 30 6 69 13 85 15 17 3 66 11 110 19 93 17
122 21 190 30 75 10 102 14 143 19 20 3 62 8 92 12 30 3 66 7 80 9 14 1 59 6
100 10 41 4 89 9 105 11 17 2 75 6 130 10 55 3 118 8 140 9 22 2 141 7 265 10
124 4 226 8 227 9 3 2 226 -2 433 -9z"/>
<path d="M10107 19384 c-1 -1 -105 -5 -232 -8 -126 -4 -250 -9 -275 -11 -25
-2 -88 -6 -140 -10 -52 -4 -108 -8 -124 -10 -16 -2 -65 -7 -110 -10 -44 -4
-83 -8 -86 -10 -3 -2 -39 -6 -80 -10 -41 -4 -82 -9 -91 -10 -9 -2 -40 -6 -70
-10 -30 -3 -61 -8 -69 -10 -8 -2 -40 -7 -70 -10 -30 -4 -57 -8 -60 -10 -3 -2
-26 -6 -50 -10 -45 -6 -233 -40 -280 -51 -14 -3 -36 -7 -50 -10 -347 -67 -950
-236 -1260 -353 -338 -128 -469 -182 -695 -284 -139 -63 -523 -258 -670 -340
-544 -305 -1048 -658 -1515 -1061 -220 -190 -277 -242 -510 -476 -441 -441
-802 -880 -1138 -1384 -138 -208 -162 -244 -239 -371 -38 -63 -125 -213 -191
-331 -88 -158 -296 -581 -344 -699 -11 -27 -26 -61 -33 -75 -20 -40 -149 -364
-198 -500 -133 -367 -242 -738 -316 -1070 -12 -52 -23 -104 -26 -115 -17 -74
-34 -156 -39 -189 -4 -21 -8 -41 -10 -45 -2 -3 -7 -30 -10 -60 -4 -29 -8 -56
-10 -60 -2 -3 -7 -31 -11 -61 -4 -30 -8 -57 -10 -60 -2 -3 -6 -27 -9 -55 -4
-27 -9 -57 -11 -65 -2 -8 -6 -40 -10 -71 -3 -31 -7 -65 -9 -75 -2 -11 -7 -48
-11 -84 -4 -36 -8 -72 -10 -81 -2 -8 -6 -53 -10 -100 -4 -46 -9 -92 -10 -101
-2 -10 -7 -62 -11 -115 -3 -54 -8 -114 -9 -133 -18 -209 -23 -772 -11 -1010
13 -231 14 -255 20 -335 8 -97 15 -165 22 -225 2 -25 7 -65 9 -89 5 -44 11
-97 21 -161 2 -19 6 -48 8 -65 11 -85 18 -140 22 -159 2 -12 6 -32 8 -46 3
-14 8 -43 11 -65 3 -22 16 -96 30 -165 13 -69 26 -136 29 -150 5 -24 65 -294
70 -315 2 -5 6 -23 10 -40 79 -320 254 -881 322 -1032 8 -17 14 -36 14 -42 0
-6 4 -19 10 -29 5 -9 30 -69 56 -132 154 -383 395 -877 566 -1159 21 -34 38
-65 38 -66 0 -7 205 -333 273 -435 92 -138 277 -395 352 -491 33 -41 71 -90
85 -109 14 -18 30 -38 35 -44 6 -6 39 -47 75 -91 35 -44 69 -85 75 -91 6 -6
27 -30 46 -54 18 -23 45 -54 59 -69 14 -15 65 -72 115 -127 268 -296 578 -596
855 -828 47 -39 87 -73 90 -76 3 -3 28 -24 55 -45 28 -22 52 -42 55 -45 16
-16 117 -94 247 -191 81 -61 155 -116 163 -122 26 -21 368 -250 433 -291 124
-76 353 -214 407 -243 30 -17 73 -40 95 -53 67 -38 454 -233 560 -282 134 -61
333 -148 340 -148 3 0 24 -8 48 -19 195 -86 623 -234 922 -320 143 -40 222
-63 240 -67 6 -1 60 -14 120 -29 176 -43 480 -106 574 -120 14 -2 67 -11 116
-20 50 -8 108 -18 130 -21 22 -2 69 -9 105 -14 85 -13 209 -28 290 -35 36 -4
76 -8 90 -10 24 -4 137 -13 260 -21 459 -30 1150 -20 1500 21 19 2 64 7 100
11 36 3 72 7 80 9 8 2 49 6 90 10 41 4 77 8 80 10 3 2 34 6 70 10 36 3 72 8
80 10 8 2 29 6 45 9 68 11 172 28 195 31 14 2 70 13 125 24 55 12 111 23 125
26 14 2 40 7 59 10 19 3 38 8 41 10 4 3 25 7 46 11 39 6 288 68 399 99 33 9
68 18 78 20 56 12 471 145 635 204 564 202 1184 502 1711 828 370 229 802 544
1100 801 30 26 64 54 75 62 12 8 26 19 31 26 6 6 37 35 70 64 116 102 288 266
433 414 182 183 163 163 313 331 606 679 1089 1409 1481 2240 58 123 177 397
193 445 1 3 7 19 14 35 19 45 112 288 117 305 2 8 34 106 71 217 38 111 70
207 72 215 2 7 19 67 38 133 19 66 36 127 38 135 2 8 13 50 24 92 12 42 23 87
25 100 3 13 5 23 6 23 1 0 3 7 5 15 2 8 19 87 39 175 20 88 39 174 42 190 3
17 14 75 24 130 10 55 22 120 25 145 7 44 10 59 19 110 3 14 8 48 11 75 3 28
7 61 10 75 2 14 7 43 10 65 2 22 7 56 10 75 2 19 6 55 9 80 3 25 8 70 11 100
10 86 13 128 21 230 3 52 8 111 9 130 27 333 22 1006 -9 1335 -3 28 -8 84 -11
125 -3 41 -8 91 -10 110 -3 19 -8 60 -11 90 -3 30 -7 64 -9 75 -1 11 -6 47
-10 80 -3 33 -8 71 -10 85 -3 14 -7 43 -11 65 -3 22 -17 105 -30 185 -14 80
-27 156 -28 170 -5 35 -45 227 -58 275 -6 22 -12 51 -15 64 -2 13 -11 51 -19
85 -8 34 -17 72 -20 86 -20 106 -165 594 -236 795 -75 211 -149 406 -199 520
-9 22 -38 87 -62 145 -25 58 -60 137 -78 175 -18 39 -33 72 -34 75 -5 22 -216
429 -285 550 -21 36 -48 85 -62 110 -34 61 -162 273 -206 340 -94 145 -215
325 -280 415 -40 55 -77 108 -84 119 -7 10 -18 24 -23 30 -6 6 -46 58 -90 116
-43 58 -82 107 -85 110 -3 3 -23 28 -45 55 -22 28 -49 61 -61 75 -12 14 -48
57 -80 95 -78 93 -94 112 -124 145 -14 15 -61 68 -105 116 -101 113 -462 474
-580 581 -110 100 -126 114 -240 211 -49 42 -98 83 -107 91 -9 9 -23 21 -30
26 -12 10 -94 75 -128 102 -12 10 -106 82 -235 181 -110 84 -383 272 -394 272
-5 0 -11 3 -13 8 -3 7 -145 100 -233 152 -22 13 -41 28 -43 32 -2 4 -8 8 -12
8 -5 0 -49 24 -97 53 -284 172 -661 363 -1088 552 -16 7 -66 27 -110 45 -44
17 -89 36 -100 40 -209 92 -901 316 -1090 355 -11 2 -96 22 -190 44 -228 55
-394 89 -510 105 -22 4 -62 10 -90 16 -27 5 -68 12 -90 15 -63 9 -245 34 -295
40 -100 12 -118 14 -180 20 -36 4 -83 8 -105 10 -22 2 -80 7 -130 10 -49 3
-103 8 -120 10 -44 6 -652 23 -658 19z m423 -238 c160 -6 272 -13 350 -21 25
-3 77 -7 115 -10 68 -5 138 -12 200 -20 17 -2 59 -6 95 -10 36 -4 74 -9 85
-11 11 -2 40 -7 65 -10 45 -5 217 -31 255 -38 11 -2 49 -9 85 -16 36 -7 76
-14 90 -17 62 -11 179 -34 215 -43 22 -5 101 -23 175 -40 74 -18 191 -47 260
-67 69 -19 132 -36 140 -38 113 -26 593 -187 757 -254 27 -10 109 -44 183 -74
74 -30 160 -66 190 -80 30 -14 107 -49 170 -77 109 -50 430 -212 515 -260 22
-13 65 -36 95 -53 30 -16 137 -80 238 -141 101 -61 191 -116 200 -121 46 -27
107 -71 110 -77 2 -5 8 -8 13 -8 9 0 71 -42 248 -167 64 -45 192 -138 206
-150 6 -5 48 -38 95 -73 47 -36 87 -68 90 -71 3 -4 28 -24 55 -44 28 -21 52
-41 55 -44 3 -3 48 -42 100 -86 52 -44 97 -82 100 -85 3 -3 28 -25 55 -49 189
-167 451 -423 621 -608 98 -105 95 -103 174 -193 30 -35 64 -73 75 -86 109
-121 379 -469 517 -664 121 -172 448 -685 448 -704 0 -2 23 -43 51 -92 72
-125 253 -482 331 -654 281 -617 486 -1251 622 -1920 36 -179 93 -513 101
-590 4 -46 17 -158 20 -176 7 -47 15 -127 31 -309 31 -357 36 -1013 9 -1320
-2 -22 -6 -80 -10 -130 -9 -121 -15 -180 -40 -390 -5 -41 -39 -278 -50 -350
-16 -99 -30 -178 -41 -230 -4 -16 -8 -39 -9 -51 -4 -28 -35 -172 -45 -209 -5
-16 -11 -47 -15 -69 -3 -21 -7 -41 -10 -45 -2 -4 -6 -18 -8 -32 -3 -13 -10
-44 -17 -69 -12 -43 -15 -55 -25 -101 -2 -12 -9 -36 -15 -54 -6 -18 -12 -41
-15 -51 -2 -10 -16 -59 -30 -109 -15 -49 -28 -97 -30 -105 -2 -8 -13 -44 -25
-80 -12 -36 -23 -72 -25 -80 -5 -22 -115 -340 -130 -375 -7 -16 -39 -97 -71
-180 -31 -82 -68 -175 -82 -205 -13 -30 -32 -73 -42 -95 -309 -699 -701 -1353
-1164 -1940 -63 -80 -253 -312 -266 -325 -3 -3 -43 -48 -90 -100 -393 -442
-855 -867 -1330 -1221 -202 -152 -324 -235 -665 -454 -288 -186 -816 -458
-1205 -622 -306 -129 -873 -331 -979 -349 -8 -2 -36 -10 -63 -19 -55 -18 -425
-112 -473 -121 -16 -3 -46 -9 -65 -14 -44 -11 -214 -45 -297 -60 -35 -6 -73
-13 -85 -15 -54 -10 -366 -57 -398 -60 -19 -2 -78 -8 -130 -14 -117 -14 -161
-18 -270 -26 -47 -4 -103 -8 -125 -10 -264 -25 -971 -24 -1245 1 -25 2 -74 6
-110 9 -170 13 -219 18 -310 30 -19 3 -55 7 -80 9 -51 6 -83 11 -220 32 -52 9
-106 17 -120 19 -69 10 -169 27 -205 35 -22 5 -78 16 -125 25 -113 22 -94 18
-270 60 -194 46 -163 38 -315 80 -155 42 -477 142 -522 161 -17 8 -34 14 -37
14 -11 0 -358 130 -403 150 -24 11 -45 20 -48 20 -29 0 -680 303 -795 371 -8
4 -89 50 -180 100 -206 115 -218 122 -239 134 -127 75 -622 404 -686 457 -5 5
-53 40 -105 80 -164 124 -419 330 -486 393 -11 11 -49 45 -84 75 -194 168
-543 517 -735 735 -87 99 -93 105 -138 159 -150 177 -220 266 -335 421 -62 83
-116 155 -120 160 -5 6 -17 24 -28 40 -10 17 -21 32 -25 35 -10 9 -244 364
-264 403 -11 20 -23 37 -27 37 -5 0 -8 4 -8 9 0 6 -27 53 -60 106 -33 53 -60
98 -60 99 0 2 -25 48 -56 102 -30 54 -78 141 -105 194 -28 52 -55 102 -60 110
-9 15 -181 375 -201 420 -6 14 -14 32 -18 41 -40 79 -178 429 -253 640 -72
200 -172 519 -183 579 -3 14 -11 45 -19 70 -12 37 -58 215 -70 270 -11 48 -37
168 -41 185 -2 11 -11 56 -20 100 -8 44 -20 99 -25 122 -5 22 -11 58 -14 80
-3 21 -10 61 -15 88 -9 49 -47 305 -55 375 -2 19 -9 76 -14 125 -12 101 -18
165 -26 275 -3 41 -8 100 -10 130 -23 265 -23 904 0 1185 2 28 6 86 10 130 10
139 23 268 30 315 3 14 7 50 9 80 3 30 7 64 9 75 3 11 8 46 12 79 3 32 8 68
10 80 8 43 55 312 58 331 3 11 8 38 12 60 4 22 9 49 11 60 3 16 32 150 49 225
1 8 8 35 15 60 7 25 14 56 16 70 6 35 49 192 96 350 22 74 41 140 42 145 1 6
17 57 36 115 18 58 35 110 36 115 12 40 94 262 157 420 72 181 116 285 202
475 59 129 234 471 305 595 34 61 71 126 82 145 239 423 647 989 1024 1420
135 154 566 590 716 725 825 740 1730 1301 2733 1695 110 43 247 95 305 115
58 20 112 39 120 42 8 3 20 7 25 9 6 1 60 18 120 37 102 33 247 77 270 83 6 1
55 14 110 29 215 58 558 136 700 159 17 3 71 12 120 21 50 9 106 18 125 21 19
2 53 7 75 11 54 9 61 10 125 17 30 3 71 8 90 11 59 8 112 14 180 21 36 3 79 8
95 9 32 4 194 16 260 21 22 1 114 5 205 9 90 3 165 7 166 8 4 4 391 -1 544 -7z"/>
<path d="M8835 17272 c-173 -27 -309 -139 -366 -303 l-22 -64 -1 -966 -1 -966
-49 -54 c-27 -30 -77 -97 -112 -149 l-62 -95 -1424 1 c-1096 1 -1434 -2 -1470
-12 -159 -41 -275 -154 -329 -319 -11 -32 -13 -455 -14 -2250 0 -1215 3 -2232
8 -2260 26 -151 130 -272 297 -344 31 -14 380 -16 3120 -19 2338 -2 3098 0
3140 9 175 37 321 189 347 359 5 30 8 542 8 1138 l0 1082 1527 0 c1093 0 1542
3 1580 11 148 32 279 150 329 296 l23 68 1 2215 c1 2388 4 2273 -51 2385 -30
62 -120 152 -184 187 -103 55 112 52 -3205 53 -1688 0 -3079 -1 -3090 -3z
m-390 -2516 c0 -36 -3 -68 -7 -72 -11 -10 -88 -11 -88 -1 0 12 86 137 94 137
1 0 2 -29 1 -64z"/>
<path d="M2519 8546 c0 -1 -2 -10 -4 -21 -4 -22 10 -35 41 -35 11 0 29 -6 40
-14 19 -14 19 -35 20 -888 1 -490 -3 -881 -8 -890 -5 -10 -28 -23 -52 -29 -36
-9 -43 -15 -43 -35 l0 -25 651 2 c638 1 704 3 836 35 345 82 598 320 690 650
29 102 34 147 34 289 0 110 -4 168 -18 235 -3 14 -8 39 -12 55 -3 17 -14 54
-25 84 -122 337 -364 522 -754 577 -37 5 -1391 15 -1396 10z m1296 -456 c233
-60 356 -230 364 -501 6 -215 -100 -416 -255 -485 -103 -45 -168 -53 -469 -54
l-281 -1 2 528 c0 291 2 529 3 530 0 0 133 0 294 -1 199 -2 308 -7 342 -16z"/>
<path d="M8269 8308 c0 -2 -1 -123 -2 -271 l-2 -267 28 0 c22 0 27 4 27 24 0
52 21 56 312 56 l268 0 0 -574 c0 -509 -2 -576 -16 -590 -8 -9 -24 -16 -35
-16 -19 0 -42 -37 -32 -52 2 -5 152 -8 334 -8 181 0 329 3 330 8 0 4 2 15 4
24 2 12 -6 19 -26 23 -62 14 -59 -18 -59 611 l0 574 268 0 c291 0 312 -4 312
-56 0 -19 5 -24 24 -24 13 0 26 6 28 13 2 6 3 127 3 267 l0 255 -25 0 c-18 0
-26 -6 -28 -22 -8 -54 18 -53 -832 -53 -856 1 -830 -1 -830 56 0 19 -5 24 -25
24 -14 0 -25 -1 -26 -2z"/>
<path d="M16218 8303 c-2 -5 -4 -125 -3 -268 l0 -260 28 -3 c23 -3 27 0 27 22
0 52 20 56 312 56 l268 0 0 -574 c0 -640 3 -613 -67 -605 -10 1 -21 -34 -16
-48 4 -10 80 -13 333 -13 321 0 328 0 333 20 4 17 -3 25 -39 41 l-43 21 -1
579 0 579 268 0 c291 0 312 -4 312 -56 0 -20 5 -24 28 -24 l27 0 0 270 0 270
-27 0 c-22 0 -27 -5 -30 -27 -6 -53 9 -53 -834 -53 -850 0 -824 -1 -824 56 0
19 -5 24 -24 24 -14 0 -26 -3 -28 -7z"/>
<path d="M6987 8248 c-93 -7 -111 -9 -182 -23 -65 -13 -184 -57 -250 -94 -154
-86 -269 -248 -278 -395 -15 -223 110 -358 402 -436 64 -17 146 -31 271 -45
418 -49 520 -82 520 -171 0 -107 -112 -158 -345 -157 -251 1 -597 78 -677 150
-10 9 -18 30 -18 48 0 24 -6 35 -25 43 -13 6 -26 8 -28 4 -3 -4 -32 -99 -66
-212 -34 -113 -66 -215 -72 -228 -14 -35 -11 -50 12 -57 14 -5 28 0 42 13 36
32 60 34 163 8 145 -36 241 -55 419 -81 73 -11 419 -14 483 -5 106 16 125 20
197 42 202 59 340 186 386 353 18 69 16 198 -4 261 -59 174 -277 285 -646 329
-30 4 -61 8 -70 10 -9 1 -45 6 -81 9 -36 4 -76 9 -90 11 -14 3 -41 7 -60 10
-124 19 -204 51 -222 90 -16 36 -2 91 30 113 75 52 210 80 372 76 153 -3 263
-22 395 -70 88 -32 108 -46 108 -79 0 -19 7 -29 25 -36 13 -5 26 -8 28 -7 2 3
114 236 191 398 l31 65 -24 8 c-17 6 -31 3 -53 -14 -25 -18 -38 -21 -84 -16
-30 4 -77 11 -103 18 -63 14 -74 16 -115 23 -19 3 -43 7 -54 10 -11 2 -45 7
-75 11 -30 4 -64 9 -75 11 -11 2 -74 6 -140 10 -66 3 -124 7 -130 8 -5 1 -54
-2 -108 -6z"/>
<path d="M14820 8238 c-357 -56 -591 -184 -731 -401 -75 -116 -110 -255 -110
-430 0 -59 3 -111 5 -116 3 -4 7 -25 10 -47 6 -56 48 -164 87 -230 167 -279
507 -419 999 -409 96 1 184 5 195 8 11 3 40 8 65 11 129 17 261 60 425 136
110 51 109 50 141 29 34 -22 34 -22 57 -5 17 13 11 24 -86 162 -57 82 -134
194 -172 249 -37 55 -70 102 -72 104 -1 2 -14 -1 -27 -8 -18 -10 -22 -20 -20
-43 6 -46 -20 -83 -93 -130 -144 -93 -295 -136 -463 -132 -41 1 -88 4 -105 8
-16 3 -43 8 -60 11 -119 23 -263 107 -325 189 -60 79 -75 127 -75 231 0 76 5
99 27 146 57 124 223 240 378 265 19 3 53 9 75 13 161 30 479 -37 589 -123 15
-12 18 -24 13 -56 -5 -37 -3 -42 22 -55 l28 -14 132 271 c103 210 130 273 119
279 -18 12 -30 11 -52 -6 -25 -19 -62 -19 -115 0 -23 8 -45 14 -49 14 -4 0
-54 12 -112 26 -207 49 -315 63 -485 62 -88 0 -185 -4 -215 -9z"/>
<path d="M5225 8230 c-103 -5 -110 -6 -107 -25 5 -25 2 -23 41 -30 51 -9 68
-22 72 -52 3 -23 3 -1298 0 -1400 -1 -35 -17 -49 -72 -58 -40 -7 -42 -9 -44
-35 -2 -20 6 -20 367 -20 l368 0 0 24 c0 22 -6 26 -45 32 -79 11 -74 -39 -75
753 0 795 -5 744 75 757 39 5 45 10 45 30 l0 23 -257 3 c-142 2 -307 1 -368
-2z"/>
<path d="M10518 8232 c-72 -2 -97 -6 -102 -17 -6 -16 21 -48 34 -40 18 11 77
-23 81 -46 4 -20 3 -1309 0 -1406 -1 -35 -17 -49 -72 -58 -40 -7 -42 -9 -44
-35 -2 -20 6 -20 367 -20 l368 0 0 24 c0 20 -6 24 -40 30 -22 3 -49 15 -60 26
-20 20 -20 35 -20 728 0 796 -5 746 75 758 39 5 45 10 45 30 l0 23 -267 3
c-148 2 -311 2 -365 0z"/>
<path d="M11753 8232 c-143 -3 -143 -3 -143 -26 0 -18 7 -25 32 -30 17 -3 40
-14 50 -23 17 -15 18 -53 18 -733 0 -670 -1 -718 -17 -733 -10 -8 -30 -19 -45
-22 -21 -5 -28 -13 -28 -31 l0 -24 315 0 315 0 0 24 c0 18 -7 25 -27 29 -16 3
-37 12 -48 20 -19 14 -19 30 -20 497 0 265 3 486 6 491 3 5 29 -19 58 -53 83
-99 211 -236 446 -479 297 -308 375 -399 375 -440 0 -17 -45 -39 -80 -39 -19
0 -34 -26 -24 -41 3 -5 152 -9 345 -9 l339 0 0 25 c0 16 -6 25 -16 25 -24 0
-80 29 -82 43 -6 45 -3 1417 2 1435 5 16 21 26 52 34 36 10 44 16 44 35 0 25
12 24 -205 24 -47 0 -166 0 -265 -1 l-180 0 0 -24 c0 -19 7 -25 35 -30 67 -13
65 2 65 -404 l0 -367 -51 55 c-29 30 -108 116 -178 189 -69 74 -155 166 -191
205 -36 38 -74 79 -85 90 -11 12 -51 56 -88 99 -59 68 -66 80 -56 98 6 11 24
25 40 31 21 7 29 16 29 34 0 22 -4 24 -52 24 -29 0 -163 1 -298 3 -135 1 -309
1 -387 -1z"/>
<path d="M5910 5915 c0 -15 6 -25 14 -25 12 0 14 -47 14 -294 0 -275 -2 -295
-19 -299 -12 -3 -16 -11 -12 -26 5 -21 9 -21 247 -21 266 0 320 8 391 58 48
33 100 108 116 165 14 48 17 154 6 210 -15 79 -74 163 -144 204 -78 46 -130
53 -380 53 l-233 0 0 -25z m514 -108 c82 -36 111 -93 111 -217 0 -82 -3 -101
-24 -137 -41 -71 -87 -87 -261 -90 -80 -1 -152 0 -160 2 -13 4 -15 38 -14 232
1 126 2 229 3 229 1 1 70 0 154 -1 116 -1 161 -6 191 -18z"/>
<path d="M9490 5916 c0 -15 7 -26 16 -28 25 -5 245 -580 227 -591 -7 -4 -13
-17 -13 -27 0 -19 8 -20 105 -20 104 0 105 0 105 24 0 13 -5 26 -10 28 -7 2 0
31 15 73 31 82 102 277 117 320 21 60 20 62 103 -165 15 -41 34 -88 41 -105
29 -67 43 -120 34 -129 -6 -6 -10 -18 -10 -28 0 -16 10 -18 100 -18 94 0 100
1 100 20 0 11 -6 23 -14 26 -13 5 -13 11 1 42 23 54 24 57 117 302 46 124 87
233 91 242 4 9 13 14 21 11 10 -4 14 3 14 21 l0 26 -94 0 c-74 0 -95 -3 -100
-15 -3 -9 2 -20 13 -27 18 -11 18 -13 -4 -67 -13 -31 -49 -127 -81 -213 -33
-86 -61 -154 -65 -150 -6 8 -159 417 -159 427 0 3 5 3 10 0 6 -4 10 5 10 19
l0 26 -105 0 c-94 0 -105 -2 -105 -18 0 -10 5 -23 10 -28 10 -10 -34 -147
-105 -329 -13 -33 -27 -72 -30 -87 -4 -16 -10 -28 -14 -28 -3 0 -26 53 -50
118 -24 64 -61 161 -82 216 -43 107 -45 117 -27 114 7 -2 13 7 14 20 1 21 -1
22 -97 22 -98 0 -99 0 -99 -24z"/>
<path d="M6878 5832 c-30 -4 -38 -28 -16 -50 8 -8 12 -71 13 -199 1 -107 6
-199 12 -213 25 -59 103 -105 197 -117 70 -8 80 -8 164 0 129 13 205 72 217
170 4 29 6 62 5 73 -1 10 -2 81 -1 157 1 111 4 137 15 137 14 0 16 23 3 36 -6
6 -78 8 -144 5 -17 -1 -16 -38 1 -44 11 -4 13 -42 12 -191 -1 -173 -2 -187
-22 -206 -31 -31 -100 -48 -181 -44 -83 3 -136 23 -154 56 -19 34 -21 378 -2
385 19 8 16 43 -4 44 -10 0 -34 1 -53 2 -19 1 -47 1 -62 -1z"/>
<path d="M7834 5831 c-9 -9 -3 -34 10 -45 15 -11 7 -30 -92 -246 -11 -25 -39
-88 -62 -140 -41 -92 -56 -114 -72 -104 -4 3 -8 -7 -8 -21 l0 -26 88 3 c79 3
87 5 87 23 0 11 -6 20 -12 20 -7 0 -13 5 -13 10 1 21 44 105 54 106 11 1 236
0 268 0 24 -1 73 -101 56 -113 -7 -4 -16 -8 -20 -8 -5 0 -8 -9 -8 -20 0 -20 5
-21 98 -18 89 3 97 5 97 23 0 11 -5 20 -12 20 -7 0 -16 5 -21 10 -10 10 -232
471 -232 481 0 3 5 2 10 -1 14 -9 25 24 12 37 -10 10 -219 18 -228 9z m156
-193 c69 -137 73 -123 -41 -124 -55 0 -98 3 -97 7 16 38 92 199 94 199 2 0 22
-37 44 -82z"/>
<path d="M8443 5832 c-27 -4 -30 -26 -5 -44 16 -12 17 -35 18 -250 0 -177 -3
-238 -12 -238 -11 0 -24 -22 -24 -41 0 -5 114 -9 274 -9 200 0 275 -3 278 -12
5 -15 36 -19 40 -5 3 7 4 44 4 82 -1 65 -3 70 -23 73 -18 3 -23 -2 -23 -17 0
-21 -4 -21 -199 -21 -150 0 -200 3 -203 13 -3 10 -3 335 1 405 1 12 7 22 16
22 18 0 20 26 3 36 -12 8 -106 11 -145 6z"/>
<path d="M10823 5832 c-17 -3 -22 -9 -19 -25 1 -12 9 -22 17 -22 12 0 14 -41
14 -243 1 -191 -2 -242 -12 -242 -7 0 -13 -3 -14 -7 0 -5 -2 -16 -4 -25 -3
-16 6 -18 86 -18 82 0 89 2 89 20 0 10 -8 24 -17 29 -16 8 -18 29 -17 233 2
280 1 261 19 254 11 -4 15 1 15 19 0 18 -6 25 -20 26 -71 3 -118 4 -137 1z"/>
<path d="M11227 5832 c-23 -5 -22 -39 1 -46 17 -6 18 -24 18 -249 -1 -225 -2
-242 -18 -239 -13 2 -18 -4 -18 -23 0 -25 1 -25 85 -25 85 0 85 0 85 26 0 14
-4 23 -10 19 -18 -11 -21 18 -18 199 l3 178 110 -124 c130 -146 162 -182 193
-215 22 -24 30 -49 12 -38 -6 4 -10 -5 -10 -19 l0 -26 100 0 100 0 0 25 c0 16
-6 25 -15 25 -18 0 -16 -23 -17 249 -1 186 1 226 14 235 8 6 17 19 21 29 7 18
3 19 -98 19 -25 0 -52 -1 -60 -1 -21 -1 -19 -38 3 -45 15 -5 17 -22 16 -173
-1 -93 -2 -172 -3 -177 -1 -9 -37 27 -103 104 -17 19 -49 55 -72 80 -103 112
-148 170 -132 170 19 0 22 40 4 41 -65 3 -178 3 -191 1z"/>
<path d="M12071 5830 c-4 -3 -6 -11 -5 -17 1 -7 2 -17 3 -23 0 -5 7 -9 14 -7
9 1 12 -52 13 -240 2 -219 0 -243 -15 -248 -9 -3 -17 -14 -17 -25 0 -20 5 -21
199 -20 209 2 258 10 322 54 68 46 106 128 107 229 2 154 -66 251 -201 287
-43 11 -406 20 -420 10z m400 -114 c68 -29 109 -94 109 -175 0 -88 -50 -159
-127 -180 -21 -6 -84 -11 -140 -11 -91 0 -103 2 -103 18 -1 35 -1 269 -1 315
l1 47 114 0 c75 0 125 -5 147 -14z"/>
<path d="M13022 5820 c-100 -36 -160 -89 -192 -170 -77 -189 47 -376 263 -399
219 -23 382 94 388 279 7 177 -140 310 -341 310 -38 -1 -87 -9 -118 -20z m233
-105 c49 -23 89 -67 103 -111 12 -42 7 -116 -12 -151 -74 -144 -327 -144 -402
-1 -54 104 6 241 122 278 44 14 144 6 189 -15z"/>
<path d="M13559 5828 c-5 -28 -1 -43 9 -40 14 3 17 -2 127 -270 84 -204 94
-235 76 -224 -11 7 -20 -14 -14 -31 3 -9 31 -13 92 -13 86 0 87 0 87 25 0 17
-4 24 -13 21 -19 -8 -17 -2 28 125 22 63 49 139 60 169 11 30 22 62 25 70 3 8
38 -65 80 -169 40 -102 70 -187 65 -190 -5 -4 -11 -15 -13 -26 -3 -19 3 -20
83 -23 82 -3 86 -2 84 18 -1 12 -7 25 -14 29 -18 11 150 473 177 485 11 5 19
19 19 30 0 20 -5 21 -76 19 -42 -1 -82 -2 -88 -2 -7 -1 -13 -13 -13 -27 0 -14
4 -23 9 -19 26 16 17 -29 -33 -168 -30 -83 -58 -160 -62 -171 -5 -14 -19 12
-51 100 -25 66 -55 147 -68 182 -18 47 -20 62 -10 62 16 0 16 40 0 41 -20 1
-91 1 -132 0 -33 -1 -43 -5 -43 -17 0 -9 6 -22 14 -28 12 -9 8 -27 -26 -116
-21 -58 -43 -114 -48 -125 -4 -11 -16 -42 -25 -68 -9 -27 -18 -47 -20 -45 -2
2 -35 80 -74 173 -63 151 -69 171 -55 182 9 6 14 19 12 28 -2 15 -17 18 -86
19 -45 0 -83 -2 -83 -6z"/>
<path d="M9081 5541 c1 -75 2 -80 22 -78 12 0 25 6 29 11 10 15 228 15 228 1
0 -15 47 -17 52 -2 4 10 3 115 -1 140 -2 12 -41 8 -55 -5 -16 -16 -219 -15
-224 1 -2 6 -15 11 -28 11 -23 0 -24 -2 -23 -79z"/>
<path d="M5515 4395 c-156 -33 -238 -113 -229 -222 4 -57 27 -98 72 -128 54
-35 101 -43 295 -48 99 -3 121 -6 145 -24 54 -40 34 -100 -45 -135 -63 -28
-190 -27 -276 1 -64 22 -115 61 -103 80 6 9 -31 37 -39 29 -6 -7 -75 -160 -75
-168 0 -14 33 -21 41 -9 5 8 30 2 87 -20 216 -83 463 -45 546 83 14 22 27 53
27 68 1 15 2 34 3 41 4 22 -24 91 -46 114 -19 20 -75 52 -102 57 -63 14 -99
17 -214 20 -147 4 -182 16 -182 61 0 84 201 128 343 75 51 -19 62 -29 58 -52
0 -4 8 -12 19 -18 18 -9 24 -3 60 70 22 44 40 84 40 89 0 13 -37 20 -49 8 -7
-7 -32 -3 -81 12 -85 27 -212 34 -295 16z"/>
<path d="M10352 4399 c-61 -11 -156 -56 -185 -87 -52 -54 -67 -143 -35 -209
16 -33 80 -78 130 -91 21 -5 90 -10 155 -11 146 -2 181 -7 213 -30 53 -38 19
-116 -60 -140 -86 -26 -244 -12 -318 28 -33 17 -54 43 -48 57 5 12 -31 41 -39
32 -9 -10 -75 -153 -75 -164 0 -17 21 -23 42 -13 11 6 40 -1 90 -21 114 -45
217 -55 338 -33 82 16 118 33 168 78 47 42 64 80 63 141 -1 85 -30 127 -111
163 -55 24 -100 30 -257 35 -135 4 -173 17 -173 60 0 91 219 133 363 70 20
-10 37 -24 37 -33 0 -9 9 -22 20 -28 18 -12 22 -7 53 55 47 92 51 108 32 116
-9 3 -24 1 -33 -5 -14 -9 -34 -6 -87 11 -76 24 -211 33 -283 19z"/>
<path d="M13704 4390 c-181 -50 -273 -176 -262 -359 13 -208 160 -324 408
-323 183 1 312 78 371 222 22 56 17 213 -9 272 -40 89 -148 173 -247 193 -72
15 -199 12 -261 -5z m243 -115 c93 -28 147 -106 147 -215 0 -81 -16 -128 -55
-168 -50 -51 -85 -64 -181 -68 -144 -5 -232 43 -261 144 -42 143 19 275 144
311 52 14 150 13 206 -4z"/>
<path d="M9492 4312 c-19 -19 -33 -20 -274 -20 -139 0 -259 -1 -265 -1 -18 -1
-16 -38 2 -49 13 -7 15 -42 13 -248 -2 -185 -6 -238 -15 -236 -8 1 -13 -8 -13
-23 l0 -25 280 0 c242 0 280 -2 280 -15 0 -16 18 -19 36 -7 7 4 12 36 12 80 0
69 -1 72 -24 72 -15 0 -24 -6 -24 -15 0 -13 -27 -15 -207 -13 l-208 3 0 70 0
70 143 3 c117 2 142 0 142 -12 0 -19 26 -28 37 -13 5 7 9 44 8 82 0 65 -2 70
-23 73 -15 2 -22 -2 -22 -12 0 -14 -20 -16 -144 -16 l-143 0 1 65 1 65 40 1
c22 0 87 0 145 0 222 0 223 0 216 -16 -4 -11 1 -15 19 -15 27 0 27 -1 27 98 1
65 -12 82 -40 54z"/>
<path d="M6187 4292 c-22 -4 -22 -31 -1 -47 15 -10 17 -40 16 -243 0 -127 -3
-236 -7 -242 -3 -6 -11 -8 -16 -5 -5 4 -9 -5 -9 -19 0 -26 1 -26 84 -26 58 0
85 4 88 13 7 18 -2 37 -18 37 -12 0 -14 40 -14 240 0 220 2 241 18 248 25 10
24 42 -2 43 -11 0 -44 1 -72 2 -28 1 -58 1 -67 -1z"/>
<path d="M6605 4290 c-19 -3 -31 -11 -31 -22 -2 -16 8 -22 29 -19 4 1 6 -110
5 -246 -3 -213 -5 -248 -18 -248 -8 0 -15 -9 -15 -20 0 -18 8 -20 86 -23 86
-3 87 -3 87 22 0 14 -3 25 -7 24 -26 -3 -28 9 -28 187 0 102 2 185 4 185 5 0
12 -7 103 -110 101 -114 130 -146 183 -204 38 -43 43 -52 30 -64 -29 -29 -9
-37 92 -37 94 0 98 1 101 22 2 13 1 22 -4 22 -32 -5 -32 0 -30 244 2 180 6
241 15 240 12 -3 29 34 20 43 -8 8 -156 9 -164 1 -14 -15 -10 -35 8 -40 18 -5
19 -17 19 -181 0 -97 -3 -176 -7 -175 -5 0 -25 21 -47 47 -21 26 -73 85 -115
131 -42 47 -93 104 -114 127 -29 32 -35 44 -25 51 7 4 14 16 14 26 1 13 -6 17
-30 18 -107 4 -134 3 -161 -1z"/>
<path d="M7630 4290 c-139 -38 -228 -140 -238 -271 -11 -159 80 -272 244 -302
146 -28 309 9 390 88 18 18 23 43 10 48 -15 6 -14 70 1 107 6 14 9 28 7 31 -2
4 -56 6 -121 5 -66 0 -121 3 -127 9 -14 13 -46 18 -47 8 -4 -23 -5 -130 -2
-140 6 -15 26 -11 46 8 10 11 32 15 64 14 44 -1 48 -3 51 -27 2 -20 -3 -27
-25 -36 -136 -53 -293 -25 -352 62 -62 94 -12 243 98 288 92 38 300 -6 301
-63 0 -14 19 -29 36 -29 3 0 19 30 35 66 24 53 28 69 17 75 -7 5 -19 7 -26 4
-7 -3 -31 4 -52 15 -82 42 -232 61 -310 40z"/>
<path d="M8232 4290 c-15 -11 -12 -40 3 -40 8 0 16 -6 16 -12 6 -55 3 -472 -3
-481 -4 -7 -8 -7 -8 -2 0 14 -20 -17 -20 -32 0 -10 61 -13 271 -13 224 0 273
-3 285 -15 28 -28 39 -8 39 73 0 71 -2 77 -21 80 -15 2 -23 -3 -27 -18 -5 -20
-10 -20 -204 -18 l-198 3 0 205 c-1 113 1 211 3 218 2 6 10 12 18 12 8 0 14 9
14 20 0 15 -7 20 -27 21 -16 0 -52 1 -81 2 -30 1 -57 0 -60 -3z"/>
<path d="M11002 4270 c2 -14 9 -24 16 -22 10 2 12 -50 10 -245 -2 -192 -6
-247 -15 -245 -8 1 -13 -8 -13 -23 0 -25 1 -25 83 -25 46 0 86 3 89 6 10 10
-4 44 -19 44 -11 0 -14 38 -12 238 1 230 2 238 23 254 34 27 8 40 -83 42 -82
1 -82 1 -79 -24z"/>
<path d="M11577 4280 c-97 -30 -180 -110 -208 -200 -36 -119 14 -255 119 -321
102 -64 294 -70 422 -11 78 35 122 87 91 106 -10 7 -9 82 2 92 4 4 7 17 7 29
0 22 -3 22 -121 22 -88 -1 -123 3 -128 12 -5 7 -17 11 -27 7 -17 -5 -19 -16
-19 -76 0 -38 2 -70 5 -71 3 0 12 -2 22 -4 9 -2 18 5 21 14 3 14 15 17 58 17
53 -1 54 -2 54 -30 0 -25 -6 -31 -40 -43 -42 -15 -162 -21 -206 -11 -132 30
-190 153 -132 275 36 78 134 121 242 109 71 -8 161 -50 161 -76 0 -10 9 -22
21 -25 24 -8 19 -14 53 64 21 50 24 66 14 73 -7 4 -19 6 -26 3 -7 -3 -30 4
-51 14 -99 51 -230 63 -334 31z"/>
<path d="M12218 4292 c-32 -4 -39 -37 -10 -46 16 -6 18 -25 17 -246 0 -154 -3
-240 -10 -241 -5 -1 -13 -1 -17 0 -5 0 -8 -10 -8 -24 0 -25 1 -25 89 -25 l88
0 -5 25 c-2 14 -8 22 -12 20 -5 -3 -11 -1 -14 4 -7 11 -10 360 -3 367 2 3 19
-12 37 -33 18 -21 63 -72 100 -113 37 -41 91 -102 120 -135 30 -33 58 -63 64
-67 8 -5 7 -11 -2 -20 -6 -6 -12 -20 -12 -30 0 -16 10 -18 100 -18 l100 0 0
26 c0 14 -4 23 -9 19 -21 -13 -26 39 -25 245 3 269 1 250 19 250 9 0 15 9 15
23 0 21 -3 22 -82 21 -77 -1 -83 -3 -86 -22 -2 -15 2 -22 12 -22 9 0 17 -6 17
-12 5 -51 3 -348 -3 -348 -3 0 -16 12 -27 26 -11 15 -40 48 -63 74 -226 251
-234 260 -214 260 26 0 20 40 -6 41 -75 3 -147 4 -170 1z"/>
<path d="M14418 4289 c-14 -9 -5 -45 10 -41 14 2 13 19 16 -248 1 -206 -4
-258 -25 -245 -5 4 -9 -5 -9 -19 0 -26 0 -26 85 -26 84 0 85 0 85 25 0 14 -3
24 -7 24 -27 -4 -28 10 -27 184 1 100 2 184 3 187 0 3 12 -8 25 -23 13 -16 55
-62 93 -104 167 -186 212 -239 213 -246 0 -5 -4 -6 -9 -3 -11 7 -23 -22 -15
-35 3 -5 50 -9 105 -9 94 0 99 1 99 21 0 12 -8 23 -18 26 -16 4 -17 23 -17
246 0 222 1 242 18 245 26 5 22 42 -5 43 -133 5 -159 0 -151 -30 3 -12 9 -19
13 -16 5 3 11 1 15 -5 5 -8 8 -164 6 -323 l-1 -37 -72 82 c-39 46 -76 88 -82
93 -6 6 -43 46 -82 90 -72 82 -96 114 -76 101 11 -6 28 31 19 41 -8 7 -197 9
-209 2z"/>
<path d="M12994 4000 l1 -80 27 0 c17 0 27 5 26 12 -4 17 220 18 226 2 2 -6
16 -11 30 -11 26 0 26 0 26 78 0 78 0 79 -25 79 -14 0 -28 -6 -30 -12 -7 -18
-217 -17 -223 0 -2 7 -16 12 -32 12 l-27 0 1 -80z"/>
<path d="M7480 2842 c0 -10 4 -22 9 -27 5 -6 -4 -38 -24 -80 -18 -38 -59 -126
-90 -195 -114 -253 -148 -320 -166 -325 -9 -3 -16 -13 -15 -23 2 -14 17 -17
99 -20 97 -3 105 1 83 36 -8 13 30 131 43 133 20 4 334 3 341 -1 4 -3 19 -30
33 -60 20 -42 23 -57 14 -65 -7 -5 -12 -17 -12 -25 0 -12 18 -15 105 -15 98 0
105 1 105 20 0 13 -6 19 -17 17 -20 -3 -313 584 -300 602 5 6 9 19 9 29 0 15
-12 17 -109 17 -97 0 -108 -2 -108 -18z m220 -379 c0 -2 -51 -3 -114 -3 l-114
0 13 28 c22 45 77 165 87 192 9 23 14 16 69 -94 32 -66 59 -121 59 -123z"/>
<path d="M12280 2782 c-8 -3 -18 -10 -22 -17 -6 -9 -74 -12 -275 -12 -248 1
-268 -1 -271 -17 -2 -10 4 -23 13 -30 16 -11 17 -37 16 -247 0 -197 -3 -236
-16 -245 -8 -6 -15 -19 -15 -28 0 -14 27 -16 276 -16 231 0 278 -2 290 -15 34
-34 44 -19 44 65 0 74 -2 80 -20 80 -11 0 -23 -6 -26 -14 -5 -12 -43 -15 -210
-16 -112 0 -204 3 -205 7 0 4 0 31 -1 58 0 93 -15 85 142 84 116 0 140 -2 140
-14 0 -9 10 -15 25 -15 24 0 25 1 22 78 -2 71 -4 77 -24 80 -16 2 -23 -2 -23
-13 0 -14 -17 -15 -142 -13 l-142 3 1 58 c0 32 3 60 6 63 4 4 270 7 380 4 9 0
17 -7 17 -15 0 -9 9 -15 23 -15 23 0 23 3 23 79 -1 85 -3 91 -26 83z"/>
<path d="M11010 2699 c0 -78 1 -80 23 -77 12 2 21 9 20 16 -3 13 12 14 191 13
55 0 101 -3 104 -5 2 -3 -30 -49 -72 -103 -201 -259 -266 -347 -266 -360 0
-10 57 -13 250 -13 211 0 250 -2 250 -14 0 -17 39 -18 41 -1 1 5 1 39 2 75 0
55 -3 66 -18 69 -10 1 -22 -4 -27 -13 -8 -14 -32 -16 -159 -16 l-149 0 122
156 c231 292 241 307 225 318 -9 7 -97 10 -246 9 -192 -1 -233 1 -238 13 -3 8
-16 14 -29 14 -23 0 -24 -2 -24 -81z"/>
<path d="M8153 2750 c-23 -6 -23 -28 0 -44 15 -12 17 -36 17 -246 0 -206 -2
-234 -17 -245 -9 -7 -18 -20 -19 -29 -2 -14 10 -16 85 -16 79 0 87 2 88 20 1
11 -6 22 -18 25 -18 6 -19 17 -19 191 0 105 4 184 9 184 5 0 11 -4 13 -9 3 -7
58 -72 145 -167 15 -17 61 -67 101 -112 54 -59 68 -81 57 -86 -8 -3 -15 -15
-15 -26 0 -19 6 -20 103 -20 101 0 104 1 102 23 -1 12 -8 22 -16 22 -12 0 -14
41 -17 240 -2 239 -2 240 20 257 21 16 21 20 7 31 -13 10 -104 14 -161 8 -16
-2 -7 -31 12 -43 19 -12 20 -24 20 -185 0 -95 -4 -173 -9 -173 -5 0 -16 10
-24 23 -9 12 -30 38 -49 58 -18 19 -79 87 -135 151 -94 106 -119 139 -93 123
6 -4 10 5 10 19 0 14 -3 26 -7 27 -31 4 -175 3 -190 -1z"/>
<path d="M9130 2748 c-22 -8 -17 -38 6 -38 8 0 14 -2 14 -4 0 -3 -29 -71 -74
-171 -13 -27 -38 -84 -56 -125 -82 -188 -93 -206 -112 -194 -4 3 -8 -6 -8 -20
0 -26 1 -26 83 -26 46 0 86 3 89 6 10 9 -4 44 -17 44 -9 0 -5 17 13 55 29 61
15 57 167 57 162 0 153 2 174 -39 10 -21 21 -48 25 -60 6 -18 4 -21 -13 -18
-17 3 -21 -1 -21 -21 0 -24 1 -24 93 -24 52 0 96 3 99 6 10 10 -4 44 -19 44
-8 0 -44 62 -89 158 -167 348 -163 339 -144 327 6 -3 10 -3 11 2 0 4 2 16 4
26 2 9 -2 17 -8 18 -56 5 -202 3 -217 -3z m151 -195 c23 -49 45 -95 50 -104 7
-13 -5 -15 -91 -15 -112 -1 -106 -12 -55 101 15 33 31 70 36 83 5 12 11 22 13
22 3 0 24 -39 47 -87z"/>
<path d="M9714 2751 c-10 -10 -3 -35 13 -46 16 -12 18 -37 18 -245 0 -212 -1
-234 -17 -244 -10 -6 -18 -19 -18 -28 0 -17 19 -18 274 -18 228 0 275 -2 279
-14 3 -8 14 -12 24 -10 16 5 19 16 18 85 0 74 -1 79 -21 79 -13 0 -24 -8 -27
-20 -5 -18 -14 -19 -203 -17 l-199 2 -1 205 c0 216 1 230 20 230 15 0 18 40 3
41 -54 3 -159 3 -163 0z"/>
<path d="M10332 2741 c-13 -13 -12 -17 7 -32 12 -10 25 -19 29 -21 5 -2 52
-64 105 -139 l97 -136 0 -96 c0 -52 -4 -97 -9 -99 -5 -1 -11 -12 -13 -23 -3
-19 3 -20 85 -23 76 -2 87 -1 87 14 0 9 -7 22 -14 28 -10 7 -16 33 -17 76 -2
108 0 124 24 150 12 14 66 80 120 147 53 68 103 122 110 120 7 -1 12 8 12 22
0 24 -2 24 -77 24 -43 -1 -85 -2 -93 -2 -17 -1 -21 -36 -5 -46 8 -5 -66 -105
-135 -183 -10 -11 -26 6 -83 87 -40 56 -66 101 -59 101 7 0 13 10 15 23 1 21
-2 22 -85 22 -62 0 -91 -4 -101 -14z"/>
<path d="M12508 2752 c-19 -4 -13 -38 8 -46 22 -8 21 -486 -1 -486 -9 0 -15
-9 -15 -25 0 -25 1 -25 85 -25 84 0 85 0 85 25 0 15 -5 24 -12 23 -10 -2 -14
24 -16 100 l-3 102 88 0 88 0 61 -93 c52 -77 61 -97 57 -124 l-5 -33 86 0 c85
0 86 0 86 25 0 15 -6 25 -14 25 -8 0 -44 44 -80 98 -65 95 -66 97 -44 106 85
32 109 63 115 149 3 52 0 69 -19 101 -26 44 -66 70 -118 75 -45 5 -411 7 -432
3z m418 -100 c26 -2 42 -37 37 -77 -7 -50 -23 -55 -180 -55 l-143 0 0 68 0 68
133 -1 c72 -1 141 -3 153 -3z"/>
</g>
</svg>
